<?xml version="1.0" encoding="utf-8"?>
<!-- Generator: Adobe Illustrator 23.0.5, SVG Export Plug-In . SVG Version: 6.00 Build 0)  -->
<svg version="1.1" id="Layer_1" xmlns="http://www.w3.org/2000/svg" xmlns:xlink="http://www.w3.org/1999/xlink" x="0px" y="0px"
	 viewBox="0 0 150 150" style="enable-background:new 0 0 150 150;" xml:space="preserve">
<style type="text/css">
	.st0{fill:url(#XMLID_2_);}
	.st1{fill:url(#XMLID_3_);}
	.st2{fill:#117ACA;}
</style>
<g id="XMLID_273_">
	
		<radialGradient id="XMLID_2_" cx="76.6" cy="767.2" r="50" gradientTransform="matrix(1 0 0 1 0 -696)" gradientUnits="userSpaceOnUse">
		<stop  offset="0" style="stop-color:#FFFFFF"/>
		<stop  offset="1" style="stop-color:#F1F2F2"/>
	</radialGradient>
	<circle id="XMLID_321_" class="st0" cx="76.6" cy="71.2" r="50"/>
	
		<radialGradient id="XMLID_3_" cx="111.2985" cy="816.1118" r="111.056" gradientTransform="matrix(1 0 0 1 0 -696)" gradientUnits="userSpaceOnUse">
		<stop  offset="0" style="stop-color:#FFFFFF"/>
		<stop  offset="1" style="stop-color:#E6E7E8"/>
	</radialGradient>
	<circle id="XMLID_1152_" class="st1" cx="76.6" cy="71.2" r="46.4"/>
</g>
<g id="logo">
	<path id="logo-ne" class="st2" d="M68.8,43.7c-1.1,0-1.9,0.9-1.9,1.9v13.6h35.9L86.4,43.7H68.8"/>
	<path id="logo-se" class="st2" d="M104.1,63.4c0-1.1-0.9-1.9-1.9-1.9H88.5v35.9L104.1,81V63.4"/>
	<path id="logo-sw" class="st2" d="M84.4,98.7c1.1,0,1.9-0.9,1.9-1.9V83.1H50.4l16.4,15.5L84.4,98.7"/>
	<path id="logo-nw" class="st2" d="M49.1,79c0,1.1,0.9,1.9,1.9,1.9h13.6V45L49.1,61.4V79"/>
</g>
</svg>
