<?xml version="1.0" encoding="utf-8"?>
<!-- Generator: Adobe Illustrator 23.0.5, SVG Export Plug-In . SVG Version: 6.00 Build 0)  -->
<svg version="1.1" id="Layer_1" xmlns="http://www.w3.org/2000/svg" xmlns:xlink="http://www.w3.org/1999/xlink" x="0px" y="0px"
	 viewBox="0 0 150 150" style="enable-background:new 0 0 150 150;" xml:space="preserve">
<style type="text/css">
	.st0{fill:url(#XMLID_2_);}
	.st1{fill:url(#XMLID_3_);}
	.st2{fill:#253B80;}
	.st3{fill:#179BD7;}
	.st4{fill:#222D65;}
</style>
<g id="XMLID_273_">
	
		<radialGradient id="XMLID_2_" cx="76.6" cy="419.2" r="50" gradientTransform="matrix(1 0 0 1 0 -348)" gradientUnits="userSpaceOnUse">
		<stop  offset="0" style="stop-color:#FFFFFF"/>
		<stop  offset="1" style="stop-color:#F1F2F2"/>
	</radialGradient>
	<circle id="XMLID_321_" class="st0" cx="76.6" cy="71.2" r="50"/>
	
		<radialGradient id="XMLID_3_" cx="111.2985" cy="468.1118" r="111.056" gradientTransform="matrix(1 0 0 1 0 -348)" gradientUnits="userSpaceOnUse">
		<stop  offset="0" style="stop-color:#FFFFFF"/>
		<stop  offset="1" style="stop-color:#E6E7E8"/>
	</radialGradient>
	<circle id="XMLID_1152_" class="st1" cx="76.6" cy="71.2" r="46.4"/>
</g>
<g>
	<path class="st2" d="M67.2,95.2l0.9-5.7h-2h-9.5l6.6-41.8c0-0.3,0.3-0.5,0.5-0.5h16c5.3,0,9,1.1,10.9,3.3c0.9,1,1.5,2.1,1.7,3.3
		c0.3,1.2,0.3,2.7,0,4.5v0.1v1.2l0.9,0.5c0.8,0.4,1.4,0.9,1.8,1.4c0.8,0.9,1.3,2,1.5,3.3c0.2,1.4,0.1,3-0.2,4.8
		c-0.4,2.1-1.1,3.9-2,5.4c-0.8,1.3-1.8,2.5-3.1,3.4c-1.2,0.8-2.6,1.5-4.2,1.9c-1.5,0.4-3.3,0.6-5.2,0.6h-1.2c-0.9,0-1.8,0.3-2.4,0.9
		c-0.7,0.6-1.1,1.4-1.3,2.3l-0.1,0.5l-1.6,10L75.1,95c0,0.1-0.1,0.2-0.1,0.2s-0.1,0.1-0.2,0.1L67.2,95.2L67.2,95.2z"/>
	<path class="st3" d="M94.1,58.6c0,0.3-0.1,0.6-0.2,0.9c-2.1,10.8-9.3,14.6-18.5,14.6h-4.7c-1.1,0-2.1,0.8-2.2,1.9l-2.4,15.2
		l-0.7,4.3c-0.1,0.7,0.3,1.3,1,1.4c0.1,0,0.1,0,0.2,0h8.3c1,0,1.8-0.7,2-1.7l0.1-0.4l1.6-9.9l0.1-0.5c0.2-1,1-1.7,2-1.7h1.2
		c8.1,0,14.4-3.3,16.2-12.7c0.8-4,0.4-7.3-1.7-9.6C95.7,59.6,94.9,59,94.1,58.6z"/>
	<path class="st4" d="M91.9,57.7c-0.7-0.2-1.4-0.3-2-0.5c-1.4-0.2-2.7-0.3-4.1-0.3H73.2c-1,0-1.8,0.7-2,1.7l-2.7,16.9V76
		c0.2-1.1,1.1-1.9,2.2-1.9h4.7c9.2,0,16.4-3.7,18.5-14.6c0.1-0.3,0.1-0.6,0.2-0.9c-0.6-0.3-1.1-0.5-1.7-0.7
		C92.2,57.8,92,57.7,91.9,57.7L91.9,57.7z"/>
	<path class="st2" d="M71.2,58.6c0.2-1,1-1.7,2-1.7h12.5c1.5,0,2.9,0.1,4.1,0.3c0.9,0.1,1.7,0.3,2.5,0.6c0.6,0.2,1.2,0.4,1.7,0.7
		c0.6-4,0-6.7-2.2-9.2c-2.4-2.7-6.7-3.9-12.2-3.9h-16c-1.1,0-2.1,0.8-2.3,1.9l-6.7,42.2c-0.1,0.7,0.4,1.5,1.1,1.6c0.1,0,0.1,0,0.2,0
		h9.9l2.5-15.7L71.2,58.6L71.2,58.6z"/>
</g>
</svg>
