<?xml version="1.0" encoding="utf-8"?>
<!-- Generator: Adobe Illustrator 23.0.5, SVG Export Plug-In . SVG Version: 6.00 Build 0)  -->
<svg version="1.1" id="Layer_1" xmlns="http://www.w3.org/2000/svg" xmlns:xlink="http://www.w3.org/1999/xlink" x="0px" y="0px"
	 viewBox="0 0 150 150" style="enable-background:new 0 0 150 150;" xml:space="preserve">
<style type="text/css">
	.st0{fill:url(#XMLID_2_);}
	.st1{fill:url(#XMLID_3_);}
	.st2{fill:#32325D;}
</style>
<g id="XMLID_273_">
	
		<radialGradient id="XMLID_2_" cx="76.6" cy="767.2" r="50" gradientTransform="matrix(1 0 0 1 0 -696)" gradientUnits="userSpaceOnUse">
		<stop  offset="0" style="stop-color:#FFFFFF"/>
		<stop  offset="1" style="stop-color:#F1F2F2"/>
	</radialGradient>
	<circle id="XMLID_321_" class="st0" cx="76.6" cy="71.2" r="50"/>
	
		<radialGradient id="XMLID_3_" cx="111.2985" cy="816.1118" r="111.056" gradientTransform="matrix(1 0 0 1 0 -696)" gradientUnits="userSpaceOnUse">
		<stop  offset="0" style="stop-color:#FFFFFF"/>
		<stop  offset="1" style="stop-color:#E6E7E8"/>
	</radialGradient>
	<circle id="XMLID_1152_" class="st1" cx="76.6" cy="71.2" r="46.4"/>
</g>
<g>
	<path class="st2" d="M112.6,71.7c0-5.1-2.5-9.2-7.2-9.2c-4.8,0-7.7,4-7.7,9.1c0,6,3.4,9.1,8.3,9.1c2.4,0,4.2-0.5,5.5-1.3v-4
		c-1.4,0.7-2.9,1.1-4.9,1.1c-1.9,0-3.7-0.7-3.9-3h9.8C112.6,73.2,112.6,72.2,112.6,71.7z M102.8,69.8c0-2.3,1.4-3.2,2.6-3.2
		s2.5,0.9,2.5,3.2H102.8z"/>
	<path class="st2" d="M90,62.5c-2,0-3.2,0.9-3.9,1.6l-0.3-1.2h-4.4v23.4l5-1.1v-5.7c0.7,0.5,1.8,1.3,3.5,1.3c3.6,0,6.8-2.9,6.8-9.2
		C96.8,65.7,93.5,62.5,90,62.5z M88.8,76.3c-1.2,0-1.9-0.4-2.4-0.9V68c0.5-0.6,1.2-1,2.4-1c1.8,0,3.1,2,3.1,4.7
		C91.9,74.3,90.7,76.3,88.8,76.3z"/>
	<polygon class="st2" points="74.6,61.3 79.6,60.3 79.6,56.2 74.6,57.3 	"/>
	<rect x="74.6" y="62.9" class="st2" width="5" height="17.5"/>
	<path class="st2" d="M69.2,64.4l-0.3-1.5h-4.3v17.5h5V68.5c1.2-1.5,3.2-1.3,3.8-1v-4.6C72.7,62.6,70.4,62.2,69.2,64.4z"/>
	<path class="st2" d="M59.2,58.5l-4.9,1v16c0,3,2.2,5.1,5.2,5.1c1.6,0,2.8-0.3,3.5-0.7V76c-0.6,0.3-3.8,1.2-3.8-1.8v-7.1H63v-4.3
		h-3.8V58.5z"/>
	<path class="st2" d="M45.6,68c0-0.8,0.6-1.1,1.7-1.1c1.5,0,3.4,0.5,5,1.3v-4.7c-1.7-0.7-3.3-0.9-5-0.9c-4.1,0-6.8,2.1-6.8,5.7
		c0,5.5,7.6,4.6,7.6,7c0,0.9-0.8,1.2-1.9,1.2c-1.7,0-3.8-0.7-5.5-1.6v4.8c1.9,0.8,3.7,1.1,5.5,1.1c4.2,0,7-2.1,7-5.6
		C53.2,69.1,45.6,70.2,45.6,68z"/>
</g>
</svg>
