<?xml version="1.0" encoding="utf-8"?>
<!-- Generator: Adobe Illustrator 23.0.5, SVG Export Plug-In . SVG Version: 6.00 Build 0)  -->
<svg version="1.1" id="Layer_1" xmlns="http://www.w3.org/2000/svg" xmlns:xlink="http://www.w3.org/1999/xlink" x="0px" y="0px"
	 viewBox="0 0 150 150" style="enable-background:new 0 0 150 150;" xml:space="preserve">
<style type="text/css">
	.st0{fill:url(#XMLID_2_);}
	.st1{fill:url(#XMLID_3_);}
</style>
<g id="XMLID_273_">
	
		<radialGradient id="XMLID_2_" cx="76.6" cy="767.2" r="50" gradientTransform="matrix(1 0 0 1 0 -696)" gradientUnits="userSpaceOnUse">
		<stop  offset="0" style="stop-color:#FFFFFF"/>
		<stop  offset="1" style="stop-color:#F1F2F2"/>
	</radialGradient>
	<circle id="XMLID_321_" class="st0" cx="76.6" cy="71.2" r="50"/>
	
		<radialGradient id="XMLID_3_" cx="111.2985" cy="816.1118" r="111.056" gradientTransform="matrix(1 0 0 1 0 -696)" gradientUnits="userSpaceOnUse">
		<stop  offset="0" style="stop-color:#FFFFFF"/>
		<stop  offset="1" style="stop-color:#E6E7E8"/>
	</radialGradient>
	<circle id="XMLID_1152_" class="st1" cx="76.6" cy="71.2" r="46.4"/>
</g>
<g>
	<path d="M68.5,71.4c0,1.2-0.8,2.2-1.9,2.2c-1,0-1.9-1-1.9-2.2s0.8-2.2,1.9-2.2C67.7,69.2,68.5,70.2,68.5,71.4z M92.8,71.6
		c-0.6,0.1-1.2,0.2-1.8,0.4c-0.4,0.2-0.5,0.6-0.4,1.1c0.1,0.4,0.5,0.6,0.7,0.6c1,0,1.9-1,1.7-1.8C93.1,71.7,92.9,71.6,92.8,71.6z
		 M78.7,70c-0.5,1-0.5,2-0.1,2.9c0.3,0.7,1.1,1,1.7,0.5c0.3-0.3,0.6-0.6,0.7-1c0.2-0.6,0.2-1.8,0.2-1.8c0-0.3,0-0.7,0-1
		c0-0.1-0.1-0.3-0.2-0.3C80.3,68.8,79.1,69.2,78.7,70z M85.1,66.9c0,1.1,0,2.1,0,3.2c0.8,0.3,1.8,0,2.3-0.6c0.4-0.5,0.5-1.4,0.1-1.9
		C86.9,66.8,86,66.9,85.1,66.9z M108.3,52.3v37.8c0,0.9-0.7,1.6-1.6,1.6H46.5c-0.9,0-1.6-0.7-1.6-1.6V52.3c0-0.9,0.7-1.6,1.6-1.6
		h60.1C107.6,50.7,108.3,51.4,108.3,52.3z M99.4,65.8h0.2v-0.6c0-0.2,0-0.4,0-0.6l0,0c0,0.2,0.1,0.3,0.1,0.5l0.2,0.6h0.1l0.2-0.6
		c0.1-0.2,0.1-0.3,0.2-0.5l0,0c0,0.2,0,0.4,0,0.6v0.6h0.2l-0.1-1.3h-0.2l-0.2,0.6c-0.1,0.2-0.1,0.3-0.1,0.4l0,0
		c0-0.1-0.1-0.3-0.1-0.4l-0.2-0.6h-0.2L99.4,65.8z M98.3,64.7h0.4v1.2h0.2v-1.2h0.4v-0.1L98.3,64.7L98.3,64.7L98.3,64.7z M63,69.4
		c0.3-1.2,0.6-2.4,0.9-3.6h-1.4c-0.5,2.2-1.1,4.5-1.7,6.8c-0.6-2.3-1.3-4.6-1.9-6.8h-1.6l-0.1,0.3c-0.3,1.3-0.7,2.7-1.1,4
		c-0.2,0.8-0.4,1.6-0.7,2.5c-0.5-2.2-1.1-4.3-1.6-6.5l-0.1-0.3h-1.5c0.7,2.9,1.5,6.1,2.2,8.9h1.7c0.5-1.9,1.1-4.3,1.6-6.2
		c0.1-0.2,0.1-0.5,0.2-0.7c0.5,1.9,1,3.7,1.5,5.5l0.4,1.4h1.7L63,69.4z M69.3,69.3c-0.3-0.7-0.9-1.1-1.7-1.2c-2.4-0.5-4.3,1.2-4,3.6
		c0.2,2,1.1,2.9,3,3c1,0,1.9-0.4,2.5-1.2C69.9,72.2,70,70.7,69.3,69.3z M73.7,68c-0.9,0-1.4,0.5-1.9,1.2v-1h-1.2v6.4H72
		c0-1,0-1.9,0-2.9c0-0.5,0.1-1.1,0.3-1.5c0.1-0.3,0.4-0.6,0.7-0.7c0,0,0.5-0.2,0.7-0.2C73.7,69,73.7,68,73.7,68z M76,65.8
		c-0.5,0-0.9,0-1.3,0c0,2.9,0,5.8,0,8.8c0.5,0,0.9,0,1.3,0C76,71.6,76,68.7,76,65.8z M82.6,65.8c-0.4,0-0.8,0-1.3,0
		c0,0.8,0,1.5,0,2.3c-0.3,0-0.5,0-0.8-0.1c-1.6-0.1-3,0.8-3.4,2.3c-0.2,0.9-0.2,1.7,0,2.6c0.4,1.4,1.5,2.1,2.9,1.6
		c0.5-0.2,1-0.6,1.4-0.9c0,0.9,0,0.9,1.2,0.8C82.6,71.6,82.6,68.7,82.6,65.8z M89.1,68c-0.1-1.1-0.8-2-2.1-2.1
		c-1.1-0.1-2.2-0.1-3.3-0.1c0,2.9,0,5.8,0,8.7c0.4,0,0.9,0,1.4,0c0-1.1,0-2.1,0-3c0.8-0.2,1.6-0.2,2.3-0.5
		C88.6,70.6,89.2,69.4,89.1,68z M93.2,73.6c0,0.4,0,0.7,0,1c0.4,0,0.8,0,1.2,0c0-1.7,0-3.3,0-4.9c0-0.5-0.3-1-0.9-1.3
		c-1.3-0.6-2.6-0.3-3.9,0.1c0.1,0.4,0.2,0.7,0.2,0.9c0.7-0.1,1.4-0.3,2.1-0.3s1.1,0.4,1.1,1.2c0,0.3-0.1,0.4-0.4,0.4
		c-0.9,0-1.7,0.1-2.5,0.6c-0.9,0.5-1.2,1.5-0.8,2.4c0.3,0.8,1.1,1.2,2.1,1C92.2,74.6,92.7,74.2,93.2,73.6z M100.8,68.2h-1.5
		l-0.1,0.3c-0.1,0.4-0.3,0.9-0.4,1.3c-0.3,0.9-0.6,1.8-1,2.8c-0.1-0.2-0.1-0.2-0.1-0.3l-1.4-4.2h-1.5c0.1,0.2,0.1,0.4,0.2,0.6
		c0.6,1.7,1.2,3.3,1.9,5c0.4,0.9,0.1,1.6-0.4,2.3c-0.3,0.5-0.8,0.7-1.4,0.6c-0.2,0-0.3,0-0.5-0.1c-0.1,0.4-0.1,0.8-0.1,1.1
		c1.7,0.3,2.7-0.1,3.4-1.6c0.1-0.2,0.2-0.3,0.2-0.5C98.9,73.3,99.8,70.8,100.8,68.2z"/>
</g>
</svg>
