<?xml version="1.0" encoding="utf-8"?>
<!-- Generator: Adobe Illustrator 24.3.0, SVG Export Plug-In . SVG Version: 6.00 Build 0)  -->
<svg version="1.1" id="Layer_1" xmlns="http://www.w3.org/2000/svg" xmlns:xlink="http://www.w3.org/1999/xlink" x="0px" y="0px"
	 viewBox="0 0 300 80" style="enable-background:new 0 0 300 80;" xml:space="preserve">
<style type="text/css">
	.st0{fill:#3F4254;}
	.st1{fill:url(#XMLID_4_);}
</style>
<g id="XMLID_1_">
	<path id="XMLID_6_" class="st0" d="M88.3,40.09c0-20.38-16.52-36.91-36.91-36.91c-20.38,0-36.91,16.52-36.91,36.91
		C14.49,60.48,31.01,77,51.39,77c5.46,0,10.64-1.2,15.31-3.32c-3.43,1.26-7.13,1.94-10.99,1.94c-5.83,0-11.3-1.57-16.01-4.3
		c26.92-9.31,31.39-20.85,31.39-20.85C60.81,62.74,42.16,67.88,36.51,69.2c-7.48-5.64-12.39-14.49-12.7-24.5
		c31.46-6.6,40.58-26.94,40.58-26.94c-9.91,15.85-29.98,21.54-40.5,23.48c1.26-16.47,15.02-29.44,31.81-29.44
		c17.62,0,31.9,14.28,31.9,31.91c0,2.01-0.19,3.97-0.55,5.87C87.87,46.56,88.3,43.38,88.3,40.09z"/>
	<linearGradient id="XMLID_4_" gradientUnits="userSpaceOnUse" x1="4.045" y1="33.9211" x2="87.314" y2="33.9211">
		<stop  offset="0" style="stop-color:#FAA61A"/>
		<stop  offset="0.5969" style="stop-color:#F37021"/>
		<stop  offset="1" style="stop-color:#E11B22"/>
	</linearGradient>
	<path id="XMLID_2_" class="st1" d="M4.05,63.46c0,0,67.11-9.28,83.27-59.07C87.31,4.39,80.18,57.61,4.05,63.46z"/>
</g>
<g>
	<path class="st0" d="M115.51,46.59c-0.06,1.38-0.44,2.59-1.12,3.65c-0.68,1.06-1.63,1.87-2.86,2.45c-1.23,0.58-2.63,0.87-4.21,0.87
		c-2.6,0-4.65-0.85-6.15-2.54c-1.5-1.69-2.24-4.09-2.24-7.18v-0.98c0-1.94,0.34-3.64,1.01-5.09c0.68-1.46,1.65-2.58,2.92-3.37
		c1.27-0.79,2.74-1.19,4.41-1.19c2.4,0,4.33,0.63,5.79,1.9c1.46,1.26,2.29,3.01,2.49,5.23h-4.76c-0.04-1.21-0.34-2.07-0.91-2.6
		c-0.57-0.53-1.44-0.79-2.61-0.79c-1.19,0-2.06,0.44-2.61,1.33c-0.55,0.89-0.84,2.31-0.87,4.26v1.4c0,2.11,0.27,3.62,0.8,4.53
		c0.53,0.91,1.44,1.36,2.74,1.36c1.1,0,1.94-0.26,2.52-0.78c0.58-0.52,0.89-1.34,0.92-2.46H115.51z"/>
	<path class="st0" d="M116.98,45.8c0-1.47,0.29-2.78,0.86-3.92c0.57-1.15,1.39-2.03,2.46-2.65c1.07-0.62,2.33-0.92,3.77-0.92
		c2.2,0,3.94,0.68,5.21,2.05s1.9,3.22,1.9,5.57v0.16c0,2.29-0.64,4.11-1.91,5.46c-1.27,1.35-3,2.02-5.17,2.02
		c-2.09,0-3.78-0.63-5.04-1.88c-1.27-1.26-1.95-2.96-2.05-5.11L116.98,45.8z M121.57,46.08c0,1.36,0.21,2.36,0.64,2.99
		c0.43,0.63,1.06,0.95,1.89,0.95c1.63,0,2.47-1.26,2.5-3.77V45.8c0-2.64-0.84-3.96-2.53-3.96c-1.53,0-2.36,1.14-2.49,3.41
		L121.57,46.08z"/>
	<path class="st0" d="M137.53,38.58l0.15,1.73c1.04-1.33,2.44-2,4.2-2c1.86,0,3.11,0.74,3.77,2.22c1-1.48,2.44-2.22,4.32-2.22
		c2.98,0,4.51,1.8,4.6,5.41v9.57h-4.6V44c0-0.75-0.13-1.3-0.38-1.65c-0.25-0.34-0.72-0.52-1.39-0.52c-0.91,0-1.58,0.4-2.03,1.21
		l0.01,0.19v10.05h-4.6v-9.26c0-0.77-0.12-1.33-0.37-1.67c-0.25-0.34-0.71-0.52-1.4-0.52c-0.88,0-1.55,0.4-2.01,1.21v10.24h-4.58
		V38.58H137.53z"/>
	<path class="st0" d="M170.85,46.04c0,2.28-0.51,4.11-1.54,5.47c-1.03,1.36-2.42,2.05-4.17,2.05c-1.35,0-2.46-0.49-3.33-1.48v6.87
		h-4.58V38.58h4.28l0.14,1.36c0.88-1.09,2.04-1.63,3.47-1.63c1.81,0,3.22,0.67,4.23,2.01c1.01,1.34,1.51,3.18,1.51,5.51V46.04z
		 M166.27,45.76c0-2.61-0.76-3.92-2.28-3.92c-1.09,0-1.81,0.39-2.18,1.17v5.79c0.4,0.82,1.13,1.22,2.2,1.22
		c1.46,0,2.21-1.26,2.26-3.78V45.76z"/>
	<path class="st0" d="M181.16,53.29c-0.16-0.3-0.31-0.74-0.43-1.32c-0.84,1.06-2.02,1.59-3.54,1.59c-1.39,0-2.57-0.42-3.54-1.26
		c-0.97-0.84-1.46-1.89-1.46-3.16c0-1.6,0.59-2.8,1.77-3.62c1.18-0.82,2.89-1.22,5.14-1.22h1.41v-0.78c0-1.36-0.58-2.04-1.75-2.04
		c-1.09,0-1.63,0.54-1.63,1.61h-4.58c0-1.42,0.6-2.58,1.82-3.46c1.21-0.89,2.75-1.33,4.63-1.33c1.88,0,3.36,0.46,4.45,1.37
		c1.09,0.92,1.65,2.17,1.67,3.77v6.51c0.02,1.35,0.23,2.38,0.63,3.1v0.23H181.16z M178.29,50.3c0.57,0,1.04-0.12,1.42-0.37
		c0.38-0.24,0.65-0.52,0.81-0.83v-2.35h-1.33c-1.6,0-2.39,0.72-2.39,2.15c0,0.42,0.14,0.75,0.42,1.01
		C177.49,50.17,177.85,50.3,178.29,50.3z"/>
	<path class="st0" d="M191.86,38.58l0.15,1.73c1.02-1.33,2.42-2,4.2-2c1.53,0,2.68,0.46,3.43,1.37c0.76,0.92,1.15,2.29,1.18,4.13
		v9.48h-4.6V44c0-0.74-0.15-1.29-0.45-1.64c-0.3-0.35-0.84-0.52-1.63-0.52c-0.9,0-1.56,0.35-2,1.06v10.39h-4.58V38.58H191.86z"/>
	<path class="st0" d="M209.24,46.87l2.45-8.29h4.91l-6,17.17l-0.26,0.63c-0.85,1.9-2.36,2.86-4.52,2.86c-0.6,0-1.23-0.09-1.89-0.27
		V55.7h0.6c0.64,0,1.14-0.09,1.48-0.28c0.34-0.19,0.59-0.52,0.75-1l0.37-0.98l-5.11-14.86h4.9L209.24,46.87z"/>
	<path class="st0" d="M241.47,53.29h-4.75l-7.02-12.32v12.32h-4.77v-19.8h4.77l7,12.32V33.49h4.76V53.29z"/>
	<path class="st0" d="M252.56,53.29c-0.16-0.3-0.31-0.74-0.43-1.32c-0.84,1.06-2.02,1.59-3.54,1.59c-1.39,0-2.57-0.42-3.54-1.26
		c-0.97-0.84-1.46-1.89-1.46-3.16c0-1.6,0.59-2.8,1.77-3.62c1.18-0.82,2.89-1.22,5.14-1.22h1.41v-0.78c0-1.36-0.58-2.04-1.75-2.04
		c-1.09,0-1.63,0.54-1.63,1.61h-4.58c0-1.42,0.6-2.58,1.82-3.46c1.21-0.89,2.75-1.33,4.63-1.33c1.88,0,3.36,0.46,4.45,1.37
		c1.09,0.92,1.65,2.17,1.67,3.77v6.51c0.02,1.35,0.23,2.38,0.63,3.1v0.23H252.56z M249.7,50.3c0.57,0,1.04-0.12,1.42-0.37
		c0.38-0.24,0.65-0.52,0.81-0.83v-2.35h-1.33c-1.6,0-2.39,0.72-2.39,2.15c0,0.42,0.14,0.75,0.42,1.01
		C248.9,50.17,249.26,50.3,249.7,50.3z"/>
	<path class="st0" d="M263.39,38.58l0.15,1.73c1.04-1.33,2.44-2,4.2-2c1.86,0,3.11,0.74,3.77,2.22c1-1.48,2.44-2.22,4.32-2.22
		c2.98,0,4.51,1.8,4.6,5.41v9.57h-4.6V44c0-0.75-0.13-1.3-0.38-1.65s-0.72-0.52-1.39-0.52c-0.91,0-1.58,0.4-2.03,1.21l0.01,0.19
		v10.05h-4.6v-9.26c0-0.77-0.12-1.33-0.37-1.67s-0.71-0.52-1.4-0.52c-0.88,0-1.55,0.4-2.01,1.21v10.24h-4.58V38.58H263.39z"/>
	<path class="st0" d="M290.17,53.56c-2.26,0-4.08-0.67-5.48-2.02c-1.4-1.35-2.09-3.1-2.09-5.26v-0.38c0-1.5,0.28-2.83,0.84-3.99
		c0.56-1.15,1.37-2.04,2.44-2.67c1.07-0.63,2.34-0.94,3.81-0.94c2.07,0,3.7,0.64,4.9,1.92c1.2,1.28,1.79,3.07,1.79,5.36v1.78h-9.11
		c0.16,0.83,0.52,1.47,1.07,1.95s1.27,0.71,2.15,0.71c1.45,0,2.58-0.51,3.4-1.52l2.09,2.48c-0.57,0.79-1.38,1.42-2.43,1.88
		C292.5,53.33,291.37,53.56,290.17,53.56z M289.65,41.84c-1.34,0-2.14,0.89-2.39,2.67h4.62v-0.35c0.02-0.73-0.17-1.3-0.56-1.71
		C290.93,42.04,290.37,41.84,289.65,41.84z"/>
</g>
</svg>
