<?xml version="1.0" encoding="utf-8"?>
<!-- Generator: Adobe Illustrator 23.0.5, SVG Export Plug-In . SVG Version: 6.00 Build 0)  -->
<svg version="1.1" id="Layer_1" xmlns="http://www.w3.org/2000/svg" xmlns:xlink="http://www.w3.org/1999/xlink" x="0px" y="0px"
	 viewBox="0 0 150 150" style="enable-background:new 0 0 150 150;" xml:space="preserve">
<style type="text/css">
	.st0{fill:url(#XMLID_2_);}
	.st1{fill:url(#XMLID_3_);}
	.st2{fill:#FF6C36;}
</style>
<g id="XMLID_273_">
	
		<radialGradient id="XMLID_2_" cx="76.6" cy="767.2" r="50" gradientTransform="matrix(1 0 0 1 0 -696)" gradientUnits="userSpaceOnUse">
		<stop  offset="0" style="stop-color:#FFFFFF"/>
		<stop  offset="1" style="stop-color:#F1F2F2"/>
	</radialGradient>
	<circle id="XMLID_321_" class="st0" cx="76.6" cy="71.2" r="50"/>
	
		<radialGradient id="XMLID_3_" cx="111.2985" cy="816.1118" r="111.056" gradientTransform="matrix(1 0 0 1 0 -696)" gradientUnits="userSpaceOnUse">
		<stop  offset="0" style="stop-color:#FFFFFF"/>
		<stop  offset="1" style="stop-color:#E6E7E8"/>
	</radialGradient>
	<circle id="XMLID_1152_" class="st1" cx="76.6" cy="71.2" r="46.4"/>
</g>
<g id="Layer_4">
	<g>
		<path class="st2" d="M95.5,81.1c-0.4-0.3-1-0.3-1.5,0c-0.4,0.3-0.6,0.9-0.5,1.4s0.6,0.9,1.2,0.9c0.5,0,1-0.3,1.2-0.8
			C96.3,82.1,96.1,81.4,95.5,81.1C95,80.7,96.1,81.5,95.5,81.1z"/>
		<path class="st2" d="M79.1,93c0.3,0,0.6,0,0.9,0c0.6,0,1.2-0.1,1.7-0.1s-1,0.1,0,0c0.6-0.1,1.1,0.5,0.9,1.1
			c-0.1,0.3-0.3,0.5-0.5,0.6s-0.3,0.1-0.5,0.1s-0.4,0-0.6,0c-1.6,0.1-3.1,0.1-4.7-0.1c-1.4-0.2-2.8-0.4-4.1-0.8
			c-1.3-0.4-2.6-0.9-3.8-1.6c-1.2-0.6-2.4-1.4-3.5-2.2c-1.3-0.9-2.4-2-3.5-3.2c-1-1.2-2-2.5-2.7-3.8c-0.8-1.4-1.5-2.8-2-4.4
			s-0.8-3.2-1-4.8c-0.2-1.6-0.2-3.3,0-5c0.2-1.6,0.5-3.2,1-4.8c0.5-1.5,1.1-3,1.9-4.4c0.8-1.4,1.7-2.7,2.8-3.9
			c1-1.2,2.2-2.3,3.4-3.2c1.3-1,2.6-1.8,4-2.5c1.5-0.7,3-1.2,4.6-1.6c1.6-0.4,3.2-0.6,4.9-0.7c1.6,0,3.3,0.1,4.9,0.4
			c1.6,0.3,3.1,0.7,4.6,1.3s2.9,1.3,4.2,2.2c1.3,0.9,2.5,1.9,3.7,3c0.5,0.5,0.9,0.9,1.2,1.6c0.3,0.5,0.4,1.1,0.4,1.7
			c0.1,1.2-0.3,2.4-1.1,3.2c-0.9,1-2.3,1.6-3.7,1.5c-0.7,0-1.3-0.2-1.9-0.6c-0.3-0.2-0.6-0.4-0.8-0.6c-0.3-0.3-0.5-0.6-0.8-0.8
			c-1.2-1.1-2.5-2-3.9-2.6c-1.5-0.7-3.1-1.1-4.7-1.2c-1.6-0.1-3.3,0-4.9,0.4s-3,1.1-4.4,1.9c-1.3,0.9-2.5,2-3.5,3.2
			s-1.8,2.7-2.3,4.2s-0.8,3.2-0.8,4.8c0,1.6,0.3,3.3,0.8,4.8s1.3,2.9,2.3,4.1s2.1,2.3,3.5,3.2c1.3,0.9,2.8,1.6,4.4,2
			s3.3,0.5,4.9,0.4s3.2-0.5,4.7-1.2c0.2-0.1,0.3-0.2,0.5-0.2c0.1,0,0.3,0,0.4,0c0.3,0.1,0.5,0.3,0.6,0.6c0.1,0.3,0,0.6-0.2,0.8
			c-0.1,0.1-0.2,0.2-0.4,0.3c-0.2,0.1-0.4,0.2-0.5,0.2c-1.5,0.6-3.1,1-4.7,1.2s-3.3,0.1-4.9-0.3c0.2,0.2,0.4,0.5,0.6,0.8
			s0.4,0.5,0.5,0.8l0.1,0.1c0,0,0,0,0.1,0s0.2,0,0.3,0c0.2,0,0.3,0,0.5,0c0.7,0,1.4,0,2,0c1.3-0.1,2.7-0.3,4-0.6
			c1.2-0.4,2.5-0.8,3.6-1.5c1.1-0.6,2.2-1.3,3.2-2.2c0.2-0.2,0.5-0.4,0.7-0.6s0.4-0.4,0.6-0.5c0.4-0.2,1-0.2,1.4,0.1
			c0.4,0.3,0.6,0.8,0.4,1.3c-0.1,0.3-0.2,0.5-0.4,0.6c-0.2,0.2-0.4,0.4-0.7,0.7c-0.9,0.8-2,1.6-3,2.3c-1.1,0.7-2.3,1.2-3.5,1.7
			s-2.5,0.8-3.8,1s-2.7,0.3-4.1,0.3c0.1,0.3,0.2,0.6,0.3,0.9c0,0.1,0.1,0.3,0.1,0.4V93L79.1,93z"/>
		<path class="st2" d="M92.3,88.7c-1.3,1-2.8,1.8-4.3,2.5c-0.8,0.3-1.5,0.6-2.3,0.9c-0.4,0.1-0.8,0.2-1.2,0.3
			c-0.2,0-0.4,0.1-0.5,0.2s-0.2,0.2-0.3,0.3c-0.2,0.3-0.1,0.7,0.1,0.9c0.2,0.3,0.6,0.4,0.9,0.3c0.8-0.2,1.6-0.4,2.4-0.7
			c1.6-0.5,3.1-1.3,4.5-2.1c0.4-0.2,0.7-0.4,1-0.7c0.2-0.1,0.4-0.2,0.5-0.4c0.1-0.1,0.3-0.2,0.4-0.4c0.2-0.3,0.2-0.6,0-0.9
			s-0.5-0.4-0.8-0.4C92.5,88.5,92.4,88.6,92.3,88.7C89.8,90.5,92.6,88.4,92.3,88.7z"/>
		<path class="st2" d="M95.1,86.2c-0.2,0.2-0.4,0.5-0.7,0.7c-0.2,0.2-0.4,0.4-0.5,0.6c-0.1,0.5,0.2,1,0.7,1.1c0.3,0,0.6-0.1,0.8-0.3
			c0.2-0.2,0.5-0.4,0.7-0.7c0.2-0.2,0.4-0.4,0.5-0.7c0-0.2,0-0.5-0.1-0.7C96.1,85.8,95.5,85.8,95.1,86.2
			C94.8,86.5,95.4,85.8,95.1,86.2z"/>
		<path class="st2" d="M89.7,81.2c-0.5,0.6-1.1,1.1-1.7,1.6c-0.2,0.1-0.4,0.3-0.5,0.4s-0.3,0.2-0.3,0.4c-0.1,0.3,0,0.7,0.2,1
			c0.3,0.3,0.8,0.3,1.1,0c0.3-0.2,0.7-0.5,1-0.7s0.6-0.5,0.8-0.8c0.2-0.1,0.3-0.3,0.5-0.5c0.1-0.1,0.3-0.3,0.4-0.5
			c0.1-0.4,0-0.8-0.4-1C90.5,80.9,90,80.9,89.7,81.2C88.9,82.1,90.1,80.9,89.7,81.2z"/>
		<path class="st2" d="M79.2,65.7c-1.2,0-2.3,0.4-3.2,1c-0.9,0.7-1.6,1.6-2,2.6c-0.4,1.1-0.4,2.3-0.1,3.4s0.9,2,1.8,2.8
			c0.9,0.7,2,1.2,3.1,1.2c1.2,0.1,2.3-0.2,3.3-0.8c1-0.6,1.7-1.4,2.2-2.5s0.6-2.3,0.4-3.4s-0.8-2.1-1.6-2.9c-0.8-0.8-1.9-1.3-3-1.5
			C79.8,65.7,79.5,65.7,79.2,65.7z"/>
	</g>
</g>
</svg>
