<?xml version="1.0" encoding="utf-8"?>
<!-- Generator: Adobe Illustrator 23.0.5, SVG Export Plug-In . SVG Version: 6.00 Build 0)  -->
<svg version="1.1" id="Layer_1" xmlns="http://www.w3.org/2000/svg" xmlns:xlink="http://www.w3.org/1999/xlink" x="0px" y="0px"
	 viewBox="0 0 150 150" style="enable-background:new 0 0 150 150;" xml:space="preserve">
<style type="text/css">
	.st0{fill:url(#XMLID_2_);}
	.st1{fill:url(#XMLID_3_);}
	.st2{fill:#116BB5;}
	.st3{fill:#07ABE7;}
</style>
<g id="XMLID_273_">
	
		<radialGradient id="XMLID_2_" cx="76.6" cy="767.2" r="50" gradientTransform="matrix(1 0 0 1 0 -696)" gradientUnits="userSpaceOnUse">
		<stop  offset="0" style="stop-color:#FFFFFF"/>
		<stop  offset="1" style="stop-color:#F1F2F2"/>
	</radialGradient>
	<circle id="XMLID_321_" class="st0" cx="76.6" cy="71.2" r="50"/>
	
		<radialGradient id="XMLID_3_" cx="111.2985" cy="816.1118" r="111.056" gradientTransform="matrix(1 0 0 1 0 -696)" gradientUnits="userSpaceOnUse">
		<stop  offset="0" style="stop-color:#FFFFFF"/>
		<stop  offset="1" style="stop-color:#E6E7E8"/>
	</radialGradient>
	<circle id="XMLID_1152_" class="st1" cx="76.6" cy="71.2" r="46.4"/>
</g>
<g>
	<path class="st2" d="M94.9,106.1c-0.4-0.1-0.8-0.1-1.2-0.1c-4.1-0.2-8.1-0.5-12.2-0.7c-5.1-0.3-10.2-0.6-15.4-0.9
		c-2.7-0.2-5.5-0.3-8.2-0.5c-1-0.1-1.7-0.8-1.7-1.8c0-8,0-16,0-24c0-1,0.7-1.7,1.7-1.6c3,0.2,5.9,0.3,8.9,0.5c2.3,0.1,4.6,0.3,7,0.4
		c3.2,0.2,6.4,0.4,9.6,0.5c2.3,0.1,4.5,0.3,6.8,0.4c1.7,0.1,3.4,0.2,5.1,0.3c0.9,0.1,1.6,0.8,1.6,1.8c0,2,0,4.1,0,6.1
		c0,0.3,0,0.7,0,1c0,0.2,0,0.3-0.3,0.3c-1.8-0.1-3.7-0.2-5.5-0.3c-1,0-1.9-0.2-2.9,0c-1.9,0.3-3.3,2.1-3.3,4c0.1,2,1.6,3.7,3.5,3.9
		c1.6,0.1,3.3,0.2,5,0.3c1.1,0.1,2.1,0.1,3.2,0.2c0.2,0,0.3,0.1,0.3,0.3c0,2.8,0,5.7,0,8.5c0,0.7-0.5,1.3-1.2,1.5
		c-0.1,0-0.1,0-0.1,0.1C95.3,106.1,95.1,106.1,94.9,106.1z"/>
	<path class="st2" d="M56.3,75.8c0-0.5,0-1,0-1.5c0.1-0.8,0.8-1.6,1.6-1.7c0.5-0.1,1-0.2,1.5-0.3c0.2,0,0.2,0,0.2,0.2
		c0,0.5,0,0.9,0,1.4c0,0.2,0,0.3,0.2,0.3c2,0,3.9,0,5.9,0c0.2,0,0.2-0.1,0.2-0.2c0-0.8,0-1.6,0-2.4c0-0.2,0.1-0.4,0.3-0.4
		c0.4-0.1,0.8-0.1,1.2-0.2c0.2,0,0.3,0,0.3,0.3c0,0.4,0,0.9,0,1.3c0,0.2,0,0.3,0.3,0.3c2.4,0,4.7,0,7.1,0c0.2,0,0.3-0.1,0.3-0.3
		c0-0.9,0-1.8,0-2.6c0-0.2,0.1-0.3,0.3-0.4c1.5-0.3,3.1-0.5,4.6-0.8c0.1,0,0.3,0,0.4,0c2.4,0,4.8,0,7.2,0c0.3,0,0.4,0,0.3-0.3l0,0
		c0-0.3-0.2-0.8,0.1-1c0.2-0.2,0.6-0.2,1-0.2c0.2,0,0.4-0.1,0.7-0.1c0.9-0.1,1.6,0.4,1.6,1.4c0,2.9,0,5.8,0,8.7c0,0.2,0,0.3-0.3,0.3
		c-1.5-0.1-3.1-0.2-4.6-0.3c-0.2,0-0.2-0.1-0.2-0.3c0-1.1,0-2.3,0-3.4c0-0.3-0.1-0.4-0.4-0.4c-1.2,0-2.5,0-3.7,0
		c-0.3,0-0.3-0.1-0.3-0.3c0-0.8,0-1.6,0-2.3c0-0.2,0-0.3-0.3-0.3c-1.7,0-3.4,0-5,0c-0.2,0-0.3,0.1-0.3,0.3c0,1.7,0,3.4,0,5
		c0,0.2,0.1,0.3,0.3,0.3c0.8,0,1.6,0,2.3,0c0.2,0,0.3,0,0.3,0.3c0,0.7,0,0.7-0.7,0.7c-3.2-0.2-6.5-0.4-9.7-0.5
		c-2.3-0.1-4.5-0.3-6.8-0.4c-1.4-0.1-2.9-0.2-4.3-0.2C57.4,75.3,57.4,75.3,56.3,75.8z"/>
	<path class="st3" d="M81.6,55.5c0,1.2,0,2.4,0,3.6c0,0.2-0.1,0.3-0.3,0.3c-2.5,0-4.9,0-7.4,0c-0.3,0-0.3-0.1-0.3-0.3
		c0-2.4,0-4.9,0-7.3c0-0.3,0.1-0.3,0.3-0.3c2.4,0,4.9,0,7.3,0c0.3,0,0.3,0.1,0.3,0.3C81.6,53,81.6,54.2,81.6,55.5z"/>
	<path class="st3" d="M71.7,71.6c-0.8,0-1.6,0-2.4,0c-0.3,0-0.3-0.1-0.3-0.3c0-1.6,0-3.2,0-4.9c0-0.3,0.1-0.3,0.3-0.3
		c1.4,0,2.7,0,4.1,0c0.3,0,0.4-0.1,0.4-0.4c0-0.7,0-1.4,0-2.1c0-0.2,0.1-0.3,0.3-0.3c0.8,0,1.6,0,2.5,0c0.2,0,0.3,0,0.3,0.3
		c0,0.8,0,1.7,0,2.5c0,0.2-0.1,0.3-0.3,0.3c-0.6,0-1.2,0-1.8,0c-0.3,0-0.4,0.1-0.3,0.4c0,1.5,0,3,0,4.5c0,0.3-0.1,0.4-0.3,0.3
		C73.3,71.6,72.5,71.6,71.7,71.6z"/>
	<path class="st2" d="M64.9,47c0-0.9,0-1.8,0-2.6c0-0.2,0-0.3,0.3-0.3c1.8,0,3.6,0,5.4,0c0.2,0,0.3,0.1,0.3,0.3c0,1.8,0,3.6,0,5.4
		c0,0.2-0.1,0.3-0.3,0.3c-1.8,0-3.6,0-5.4,0c-0.2,0-0.3-0.1-0.3-0.3C64.9,48.8,64.9,47.9,64.9,47z"/>
	<path class="st2" d="M87.3,64.7c0,0.8,0,1.7,0,2.5c0,0.2,0,0.3-0.3,0.3c-1.7,0-3.4,0-5.1,0c-0.2,0-0.3-0.1-0.3-0.3
		c0-1.7,0-3.4,0-5.1c0-0.2,0.1-0.3,0.3-0.3c1.7,0,3.4,0,5.1,0c0.2,0,0.3,0.1,0.3,0.3C87.3,62.9,87.3,63.8,87.3,64.7z"/>
	<path class="st3" d="M77.8,72.7c0-0.5,0-1,0-1.4c0-0.2,0.1-0.3,0.3-0.3c1,0,1.9,0,2.9,0c0.2,0,0.3,0.1,0.3,0.3c0,0.8,0,1.5,0,2.3
		c0,0.3,0.1,0.4,0.4,0.4c1.2,0,2.4,0,3.6,0c0.3,0,0.4,0.1,0.4,0.4c0,0.8,0,1.5,0,2.3c0,0.2-0.1,0.3-0.3,0.3
		c-1.4-0.1-2.9-0.2-4.3-0.2c-0.3,0-0.3-0.1-0.3-0.3c0-0.5,0-1,0-1.5c0-0.2-0.1-0.3-0.3-0.3c-0.8,0-1.5,0-2.3,0
		c-0.3,0-0.4-0.1-0.4-0.4C77.8,73.6,77.8,73.2,77.8,72.7z"/>
	<path class="st3" d="M87.7,50.5c-0.6,0-1.2,0-1.8,0c-0.2,0-0.3,0-0.3-0.3c0-1.2,0-2.5,0-3.7c0-0.2,0.1-0.2,0.2-0.2
		c1.3,0,2.5,0,3.8,0c0.2,0,0.3,0.1,0.3,0.3c0,1.2,0,2.5,0,3.7c0,0.2-0.1,0.3-0.3,0.3C89,50.5,88.4,50.5,87.7,50.5z"/>
	<path class="st3" d="M62.8,68.9c0.6,0,1.2,0,1.8,0c0.2,0,0.3,0,0.3,0.3c0,1.2,0,2.5,0,3.7c0,0.2,0,0.2-0.2,0.2c-1.3,0-2.5,0-3.8,0
		c-0.2,0-0.2-0.1-0.2-0.2c0-1.2,0-2.5,0-3.7c0-0.2,0.1-0.3,0.3-0.3C61.6,68.9,62.2,68.9,62.8,68.9z"/>
	<path class="st2" d="M89.5,93.4c-1.1,0-2-0.9-2-2s0.9-2,2-2s2,0.9,2,2S90.6,93.4,89.5,93.4z"/>
	<path class="st2" d="M80.7,45.3c0,0.3,0,0.6,0,1c0,0.3-0.1,0.4-0.3,0.4c-0.6,0-1.2,0-1.8,0c-0.3,0-0.3,0.1-0.3,0.3c0,0.3,0,0.7,0,1
		c0,0.2,0,0.3-0.3,0.3c-0.5,0-0.9,0-1.4,0c-0.2,0-0.3,0-0.3-0.2c0-0.5,0-0.9,0-1.4c0-0.2,0.1-0.2,0.2-0.2c0.3,0,0.7,0,1,0
		c0.2,0,0.3-0.1,0.3-0.3c0-0.6,0-1.2,0-1.8c0-0.3,0.1-0.4,0.4-0.4c0.7,0,1.3,0,2,0c0.3,0,0.4,0,0.4,0.3
		C80.7,44.6,80.7,44.9,80.7,45.3z"/>
	<path class="st2" d="M69.9,61.5c0,0.4,0,0.8,0,1.3c0,0.2-0.1,0.3-0.3,0.3c-0.8,0-1.6,0-2.5,0c-0.2,0-0.3,0-0.3-0.3
		c0-0.8,0-1.7,0-2.5c0-0.2,0.1-0.2,0.2-0.2c0.8,0,1.7,0,2.5,0c0.2,0,0.3,0.1,0.3,0.3C69.9,60.7,69.9,61.1,69.9,61.5z"/>
	<path class="st3" d="M75.5,37.8c0,0.4,0,0.8,0,1.2c0,0.2-0.1,0.3-0.3,0.3c-0.8,0-1.6,0-2.4,0c-0.2,0-0.3-0.1-0.3-0.3
		c0-0.8,0-1.6,0-2.5c0-0.2,0.1-0.3,0.3-0.3c0.8,0,1.6,0,2.4,0c0.2,0,0.3,0.1,0.3,0.3C75.5,37,75.5,37.4,75.5,37.8z"/>
</g>
</svg>
