<?xml version="1.0" encoding="utf-8"?>
<!-- Generator: Adobe Illustrator 23.0.5, SVG Export Plug-In . SVG Version: 6.00 Build 0)  -->
<svg version="1.1" id="Layer_1" xmlns="http://www.w3.org/2000/svg" xmlns:xlink="http://www.w3.org/1999/xlink" x="0px" y="0px"
	 viewBox="0 0 150 150" style="enable-background:new 0 0 150 150;" xml:space="preserve">
<style type="text/css">
	.st0{fill:url(#XMLID_2_);}
	.st1{fill:url(#XMLID_3_);}
	.st2{fill:#83BA3B;}
</style>
<g id="XMLID_273_">
	
		<radialGradient id="XMLID_2_" cx="76.6" cy="767.2" r="50" gradientTransform="matrix(1 0 0 1 0 -696)" gradientUnits="userSpaceOnUse">
		<stop  offset="0" style="stop-color:#FFFFFF"/>
		<stop  offset="1" style="stop-color:#F1F2F2"/>
	</radialGradient>
	<circle id="XMLID_321_" class="st0" cx="76.6" cy="71.2" r="50"/>
	
		<radialGradient id="XMLID_3_" cx="111.2985" cy="816.1118" r="111.056" gradientTransform="matrix(1 0 0 1 0 -696)" gradientUnits="userSpaceOnUse">
		<stop  offset="0" style="stop-color:#FFFFFF"/>
		<stop  offset="1" style="stop-color:#E6E7E8"/>
	</radialGradient>
	<circle id="XMLID_1152_" class="st1" cx="76.6" cy="71.2" r="46.4"/>
</g>
<g>
	<path class="st2" d="M111.9,65.8c-0.9-0.6-2.3-1-4.2-1h-4.9l-1.8,9.8h-6.4l0.4-2.2h3.8l0.5-2.5h-3.8l0.4-2.2h3.9l0.5-2.9h-8
		l-1.7,9.3h-2.9l1.7-9.3h-4.2l-1.7,9.3h-2.9l1.7-9.3h-4.2l-1.8,9.8h-6.4l0.4-2.2h3.8l0.5-2.5h-3.8l0.4-2.2h4l0.5-2.9h-25l-1.4,7.8
		l-2.8-7.8h-4.3L40,77.5h4.1l1.4-8l2.7,8h14.9l1.8-9.8h2.3l-1.8,9.8h39.1l1.1-6.2l1.8,6.2h4.2l-1.9-5.1l0.4-0.1
		c1-0.2,1.7-0.6,2.2-1.3c0.5-0.7,0.8-1.5,0.8-2.6C113.2,67.3,112.8,66.4,111.9,65.8z M59.5,74.7h-6.4l0.4-2.2h4L58,70h-3.9l0.4-2.2
		h6.3L59.5,74.7L59.5,74.7z M108.5,70.4L108.5,70.4c-0.4,0.3-1,0.4-1.8,0.4h-0.8l0.6-3.4h0.6c0.7,0,1.2,0.1,1.5,0.3
		c0.3,0.2,0.6,0.5,0.6,1.2C109.2,69.7,108.8,70.2,108.5,70.4z"/>
	<path class="st2" d="M111.9,65.8L111.9,65.8L111.9,65.8z"/>
</g>
</svg>
