<?xml version="1.0" encoding="utf-8"?>
<!-- Generator: Adobe Illustrator 23.0.5, SVG Export Plug-In . SVG Version: 6.00 Build 0)  -->
<svg version="1.1" id="Layer_1" xmlns="http://www.w3.org/2000/svg" xmlns:xlink="http://www.w3.org/1999/xlink" x="0px" y="0px"
	 viewBox="0 0 150 150" style="enable-background:new 0 0 150 150;" xml:space="preserve">
<style type="text/css">
	.st0{fill:url(#XMLID_2_);}
	.st1{fill:url(#XMLID_3_);}
</style>
<g id="XMLID_273_">
	
		<radialGradient id="XMLID_2_" cx="76.6" cy="767.2" r="50" gradientTransform="matrix(1 0 0 1 0 -696)" gradientUnits="userSpaceOnUse">
		<stop  offset="0" style="stop-color:#FFFFFF"/>
		<stop  offset="1" style="stop-color:#F1F2F2"/>
	</radialGradient>
	<circle id="XMLID_321_" class="st0" cx="76.6" cy="71.2" r="50"/>
	
		<radialGradient id="XMLID_3_" cx="111.2985" cy="816.1118" r="111.056" gradientTransform="matrix(1 0 0 1 0 -696)" gradientUnits="userSpaceOnUse">
		<stop  offset="0" style="stop-color:#FFFFFF"/>
		<stop  offset="1" style="stop-color:#E6E7E8"/>
	</radialGradient>
	<circle id="XMLID_1152_" class="st1" cx="76.6" cy="71.2" r="46.4"/>
</g>
<g id="Page-1">
	<g id="skrill-logo-web-1-rgb">
		<path id="Fill-1" d="M89.5,66c1.3,0,2.4-1.1,2.4-2.4c0-1.3-1.1-2.4-2.4-2.4s-2.4,1.1-2.4,2.4S88.1,66,89.5,66L89.5,66z M70.9,67.3
			c-0.1,0.3-0.9,2.5-2.8,4.8v-9.8l-5.1,1v17.8h5.1v-5.5c1.5,2.2,2.2,5.5,2.2,5.5h6.1c-0.6-2.5-3.2-7.1-3.2-7.1
			c2.4-3,3.4-6.2,3.6-6.7L70.9,67.3L70.9,67.3z M84.3,67.1c-4.5,0.1-6.8,2.2-6.8,6.2v7.8h5v-6.3c0-2.4,0.3-3.5,3.2-3.6v-4
			C85.1,67.1,84.3,67.1,84.3,67.1L84.3,67.1z M54.6,69.2c-0.6,0-2.1-0.1-2.1-1.4c0-1.6,2.1-1.6,2.8-1.6c1.4,0,3.1,0.4,4.4,0.8
			c0,0,0.7,0.2,1.3,0.5h0.1v-4.3H61c-1.5-0.5-3.2-1-6.4-1c-5.5,0-7.5,3.2-7.5,6c0,1.6,0.7,5.3,7,5.8c0.5,0,2,0.1,2,1.5
			c0,1.1-1.2,1.8-3.1,1.8c-2.2,0-4.2-0.5-5.5-1.1v4.4c1.9,0.5,4,0.7,6.5,0.7c5.4,0,7.8-3.1,7.8-6.1C61.8,71.8,59.1,69.5,54.6,69.2
			L54.6,69.2z M87,81.1h4.9V67.3H87V81.1z M101.2,63.1v18h4.9V62.2L101.2,63.1L101.2,63.1z M94,63.1l4.9-0.9V81H94V63.1L94,63.1z"/>
	</g>
</g>
</svg>
